<svg width="470" height="470" viewBox="0 0 470 470" fill="none" xmlns="http://www.w3.org/2000/svg">
  <g fill="#77D675">
    <circle cx="235" cy="235" r="235"/>
  </g>
  <g fill="#FDEF6C">
    <path 
      fill-rule="evenodd"
      clip-rule="evenodd"
      d="M64 225C64 180.817 99.8172 145 144 145C188.183 145 224 180.817 224 225V241.5H200.873L92 241.5C92 274.5 107 304 146.5 304C176.5 304 194 285 194 271H220.337C210.143 303.457 179.821 327 144 327C99.8172 327 64 291.183 64 247V225ZM143 168C112 168.5 92 194.976 92 219H195C195 194.976 176 168.5 143 168Z"
    />
    <path 
      d="M278 144H233L297.5 230L229.5 327H271L318.784 255.5L368 327H411.5L342 230L404 144H363L318.784 203.684L278 144Z" 
    />
  </g>
</svg>
